<?xml version="1.0" encoding="utf-8"?>
<!-- Generator: Adobe Illustrator 19.2.1, SVG Export Plug-In . SVG Version: 6.00 Build 0)  -->
<svg version="1.1" id="Layer_1" xmlns="http://www.w3.org/2000/svg" xmlns:xlink="http://www.w3.org/1999/xlink" x="0px" y="0px"
	 viewBox="0 0 9 13.4" style="enable-background:new 0 0 9 13.4;" xml:space="preserve">
<style type="text/css">
	.st0{fill:#59595B;}
</style>
<path class="st0" d="M7.5,5.4c0-0.2,0-0.3,0-0.4c0-2.8-1.3-4.9-3-4.9c-1.7,0-3,2.2-3,4.9c0,0.2,0,0.3,0,0.4H0v8h9v-8H7.5z M2.5,4.9
	c0-2.3,1.1-3.9,2-3.9c1,0,2,1.6,2,3.9c0,0.2,0,0.3,0,0.4h-4C2.5,5.2,2.5,5.1,2.5,4.9z"/>
</svg>
